<?xml version="1.0" encoding="UTF-8" standalone="no"?>
<svg
   xmlns:dc="http://purl.org/dc/elements/1.1/"
   xmlns:cc="http://creativecommons.org/ns#"
   xmlns:rdf="http://www.w3.org/1999/02/22-rdf-syntax-ns#"
   xmlns:svg="http://www.w3.org/2000/svg"
   xmlns="http://www.w3.org/2000/svg"
   xmlns:xlink="http://www.w3.org/1999/xlink"
   xmlns:sodipodi="http://sodipodi.sourceforge.net/DTD/sodipodi-0.dtd"
   xmlns:inkscape="http://www.inkscape.org/namespaces/inkscape"
   width="800"
   height="600"
   viewBox="0 0 211.66666 158.75"
   version="1.1"
   id="svg8"
   inkscape:version="1.0.2 (e86c870879, 2021-01-15, custom)"
   sodipodi:docname="puase.svg">
  <defs
     id="defs2">
    <linearGradient
       id="linearGradient3141">
      <stop
         id="stop3143"
         style="stop-color:#d8d8d8"
         offset="0" />
      <stop
         id="stop3145"
         style="stop-color:#a3a3a3"
         offset="1" />
    </linearGradient>
    <linearGradient
       id="linearGradient3165">
      <stop
         id="stop3171"
         style="stop-color:#d7d7d7"
         offset="0" />
      <stop
         id="stop3173"
         style="stop-color:#e7e7e7"
         offset=".5" />
      <stop
         id="stop3169"
         style="stop-color:#d7d7d7"
         offset="1" />
    </linearGradient>
    <linearGradient
       id="linearGradient2905-3-7"
       y2="384.29001"
       gradientUnits="userSpaceOnUse"
       x2="168.57001"
       y1="200.42999"
       x1="168.57001">
      <stop
         id="stop3143-2-3"
         style="stop-color:#d8d8d8"
         offset="0" />
      <stop
         id="stop3145-9-5"
         style="stop-color:#a3a3a3"
         offset="1" />
    </linearGradient>
    <linearGradient
       id="linearGradient2907-6-1"
       y2="292.35999"
       gradientUnits="userSpaceOnUse"
       x2="250.17999"
       gradientTransform="matrix(0.83174,0,0,0.83684,27.65,44.986)"
       y1="292.35999"
       x1="90.589996">
      <stop
         id="stop3171-9-8"
         style="stop-color:#d7d7d7"
         offset="0" />
      <stop
         id="stop3173-3-9"
         style="stop-color:#e7e7e7"
         offset=".5" />
      <stop
         id="stop3169-5-4"
         style="stop-color:#d7d7d7"
         offset="1" />
    </linearGradient>
    <linearGradient
       id="linearGradient3767">
      <stop
         id="stop3769"
         style="stop-color:#e4e4e4"
         offset="0" />
      <stop
         id="stop3775"
         style="stop-color:#737373"
         offset="1" />
    </linearGradient>
    <filter
       id="filter3846"
       width="1.3480999"
       y="-0.18379"
       x="-0.17407"
       height="1.3676"
       color-interpolation-filters="sRGB"
       inkscape:collect="always">
      <feGaussianBlur
         id="feGaussianBlur3848"
         stdDeviation="7.8060924"
         inkscape:collect="always" />
    </filter>
    <linearGradient
       id="linearGradient11528"
       y2="301.89001"
       xlink:href="#linearGradient3767"
       gradientUnits="userSpaceOnUse"
       x2="203.78"
       gradientTransform="matrix(0.08512855,0,0,0.06306925,34.483428,119.21239)"
       y1="196.59"
       x1="97.753998"
       inkscape:collect="always" />
    <linearGradient
       id="linearGradient11532"
       y2="178.2"
       xlink:href="#linearGradient3767"
       gradientUnits="userSpaceOnUse"
       x2="89.177002"
       gradientTransform="matrix(0.09108533,0,0,0.06121327,33.581694,119.66336)"
       y1="287.45999"
       x1="183.19"
       inkscape:collect="always" />
    <linearGradient
       inkscape:collect="always"
       xlink:href="#linearGradient3767"
       id="linearGradient1479"
       gradientUnits="userSpaceOnUse"
       x1="56.164001"
       y1="58.168999"
       x2="101.72"
       y2="132.60001" />
    <linearGradient
       inkscape:collect="always"
       xlink:href="#linearGradient3767"
       id="linearGradient1911"
       gradientUnits="userSpaceOnUse"
       gradientTransform="matrix(0.06059594,0,0,0.06306925,39.784167,99.883079)"
       x1="97.753998"
       y1="196.59"
       x2="203.78"
       y2="301.89001" />
    <linearGradient
       inkscape:collect="always"
       xlink:href="#linearGradient3767"
       id="linearGradient1913"
       gradientUnits="userSpaceOnUse"
       x1="56.164001"
       y1="58.168999"
       x2="101.72"
       y2="132.60001" />
    <linearGradient
       inkscape:collect="always"
       xlink:href="#linearGradient3767"
       id="linearGradient1915"
       gradientUnits="userSpaceOnUse"
       gradientTransform="matrix(0.05881381,0,0,0.06121438,40.054037,100.33475)"
       x1="183.19"
       y1="287.45999"
       x2="89.177002"
       y2="178.2" />
  </defs>
  <sodipodi:namedview
     id="base"
     pagecolor="#ffffff"
     bordercolor="#666666"
     borderopacity="1.0"
     inkscape:pageopacity="0.0"
     inkscape:pageshadow="2"
     inkscape:zoom="1.2383333"
     inkscape:cx="400"
     inkscape:cy="297.41939"
     inkscape:document-units="px"
     inkscape:current-layer="layer1"
     inkscape:document-rotation="0"
     showgrid="false"
     units="px"
     inkscape:showpageshadow="true"
     showborder="true"
     inkscape:window-width="1920"
     inkscape:window-height="1017"
     inkscape:window-x="-8"
     inkscape:window-y="-8"
     inkscape:window-maximized="1" />
  <metadata
     id="metadata5">
    <rdf:RDF>
      <cc:Work
         rdf:about="">
        <dc:format>image/svg+xml</dc:format>
        <dc:type
           rdf:resource="http://purl.org/dc/dcmitype/StillImage" />
        <dc:title></dc:title>
      </cc:Work>
    </rdf:RDF>
  </metadata>
  <g
     inkscape:label="Layer 1"
     inkscape:groupmode="layer"
     id="layer1">
    <rect
       style="fill:#00ffff;stroke-width:0.686723"
       id="rect847"
       width="211.66666"
       height="158.75"
       x="3.4195964e-06"
       y="-1.25e-06"
       inkscape:export-xdpi="96"
       inkscape:export-ydpi="96" />
    <text
       xml:space="preserve"
       style="font-weight:bold;font-size:50.8px;line-height:1.25;font-family:sans-serif;-inkscape-font-specification:'sans-serif Bold';fill:#00ff00;stroke-width:0.264583;"
       x="53.276665"
       y="32.079033"
       id="text1140"><tspan
         sodipodi:role="line"
         id="tspan1138"
         x="53.276665"
         y="32.079033"
         style="font-style:normal;font-variant:normal;font-weight:normal;font-stretch:normal;font-family:'India Snake Pixel Labyrinth Gam';-inkscape-font-specification:'India Snake Pixel Labyrinth Gam';fill:#00ff00;stroke-width:0.264583;">Snake</tspan></text>
    <text
       xml:space="preserve"
       style="font-size:14.1111px;line-height:1.25;font-family:'India Snake Pixel Labyrinth Gam';-inkscape-font-specification:'India Snake Pixel Labyrinth Gam';stroke-width:0.264583"
       x="53.354858"
       y="32.014584"
       id="text835"><tspan
         sodipodi:role="line"
         id="tspan833"
         x="53.354858"
         y="32.014584"
         style="font-style:normal;font-variant:normal;font-weight:800;font-stretch:normal;font-size:50.8px;font-family:'India Snake Pixel Labyrinth Gam';-inkscape-font-specification:'India Snake Pixel Labyrinth Gam Ultra-Bold';stroke-width:0.264583">Snake</tspan></text>
    <text
       xml:space="preserve"
       style="font-weight:bold;font-size:25.4px;line-height:1.25;font-family:sans-serif;-inkscape-font-specification:'sans-serif Bold';stroke-width:0.264583"
       x="109.95253"
       y="46.744835"
       id="text1144"><tspan
         sodipodi:role="line"
         id="tspan1142"
         x="109.95253"
         y="46.744835"
         style="font-style:normal;font-variant:normal;font-weight:normal;font-stretch:normal;font-size:25.4px;font-family:'India Snake Pixel Labyrinth Gam';-inkscape-font-specification:'India Snake Pixel Labyrinth Gam';fill:#0000ff;stroke-width:0.264583">Python</tspan></text>
    <text
       xml:space="preserve"
       style="font-size:25.4px;line-height:1.25;font-family:'India Snake Pixel Labyrinth Gam';-inkscape-font-specification:'India Snake Pixel Labyrinth Gam';stroke-width:0.264583"
       x="109.97569"
       y="46.788918"
       id="text839"><tspan
         sodipodi:role="line"
         id="tspan837"
         x="109.97569"
         y="46.788918"
         style="font-style:normal;font-variant:normal;font-weight:800;font-stretch:normal;font-size:25.4px;font-family:'India Snake Pixel Labyrinth Gam';-inkscape-font-specification:'India Snake Pixel Labyrinth Gam Ultra-Bold';stroke-width:0.264583">Python</tspan></text>
    <g
       id="g2707"
       transform="translate(27.815903,10.583333)"
       inkscape:export-xdpi="96"
       inkscape:export-ydpi="96">
      <g
         id="g2263"
         transform="matrix(1.1076898,0,0,1.1076898,3.2713609,6.0798934)">
        <g
           id="g2251">
          <rect
             id="rect1858"
             style="fill:url(#linearGradient1911);stroke:#cccccc;stroke-width:0.0618202;stroke-linecap:round"
             rx="0.84967631"
             ry="0.88435704"
             height="7.2081847"
             width="6.9255099"
             y="112.01508"
             x="45.497517" />
          <path
             id="path1860"
             style="fill:url(#linearGradient1913);filter:url(#filter3846)"
             d="m 31.862,106.93 -7.143,14.38 c 0,6.0923 4.8764,11 10.969,11 h 18 47.656 20 c 6.0923,0 11,-4.9077 11,-11 l -0.29,-90.577 c -1.75,-6.119 -99.33,68.869 -100.19,76.197 z"
             sodipodi:nodetypes="ccsccsccc"
             transform="matrix(0.05879624,0,0,0.06119609,44.40388,110.88362)"
             inkscape:connector-curvature="0" />
          <rect
             id="rect1862"
             style="fill:url(#linearGradient1915);stroke-width:0.0618202"
             rx="0.6491037"
             ry="0.67559779"
             height="5.5065131"
             width="5.2905707"
             y="112.48747"
             x="46.314594" />
        </g>
        <g
           id="g2226">
          <rect
             style="fill:none;stroke-width:0.443702"
             id="rect1864"
             width="4.4979167"
             height="3.175"
             x="46.710918"
             y="113.65323" />
          <g
             id="g1951">
            <path
               d="M 47.386847,114.67918 H 46.71092 v -1.02595 h 0.675927 v 0.12126 h -0.539501 v 0.28112 h 0.539501 v 0.12127 h -0.539501 v 0.38103 h 0.539501 z"
               style="font-size:1.41111px;line-height:1.25;font-family:sans-serif;-inkscape-font-specification:sans-serif;stroke-width:0.264583"
               id="path1938" />
            <path
               d="m 48.142701,114.45731 q 0,0.10542 -0.08751,0.17295 -0.08682,0.0675 -0.237711,0.0675 -0.08544,0 -0.157096,-0.02 -0.07097,-0.0207 -0.119201,-0.0448 v -0.14538 h 0.0069 q 0.06132,0.0462 0.136425,0.0737 0.0751,0.0269 0.144005,0.0269 0.08544,0 0.13367,-0.0276 0.04823,-0.0276 0.04823,-0.0868 0,-0.0455 -0.02618,-0.0689 -0.02618,-0.0234 -0.100596,-0.04 -0.02756,-0.006 -0.07235,-0.0145 -0.0441,-0.008 -0.08062,-0.0179 -0.101285,-0.0269 -0.144004,-0.0785 -0.04203,-0.0524 -0.04203,-0.12816 0,-0.0475 0.01929,-0.0896 0.01998,-0.042 0.05994,-0.0751 0.03859,-0.0324 0.09784,-0.051 0.05994,-0.0193 0.13367,-0.0193 0.0689,0 0.139182,0.0172 0.07097,0.0165 0.117822,0.0407 v 0.13849 h -0.0069 q -0.04961,-0.0365 -0.120579,-0.0613 -0.07097,-0.0255 -0.139181,-0.0255 -0.07097,0 -0.11989,0.0276 -0.04892,0.0269 -0.04892,0.0806 0,0.0475 0.02963,0.0717 0.02894,0.0241 0.09371,0.0393 0.03583,0.008 0.07993,0.0165 0.04479,0.008 0.07441,0.0152 0.09026,0.0207 0.139181,0.071 0.04892,0.051 0.04892,0.13505 z"
               style="font-size:1.41111px;line-height:1.25;font-family:sans-serif;-inkscape-font-specification:sans-serif;stroke-width:0.264583"
               id="path1940" />
            <path
               d="m 48.897176,114.63095 q -0.06477,0.031 -0.123334,0.0482 -0.05788,0.0172 -0.123335,0.0172 -0.08337,0 -0.152962,-0.0241 -0.06959,-0.0248 -0.1192,-0.0744 -0.0503,-0.0496 -0.07786,-0.1254 -0.02756,-0.0758 -0.02756,-0.17708 0,-0.18879 0.103353,-0.29628 0.104042,-0.10748 0.274229,-0.10748 0.06615,0 0.129536,0.0186 0.06408,0.0186 0.117133,0.0455 v 0.144 h -0.0069 q -0.05926,-0.0462 -0.122645,-0.071 -0.0627,-0.0248 -0.122646,-0.0248 -0.110243,0 -0.174322,0.0744 -0.06339,0.0737 -0.06339,0.21704 0,0.13918 0.06201,0.21429 0.0627,0.0744 0.1757,0.0744 0.03927,0 0.07993,-0.0103 0.04065,-0.0103 0.07304,-0.0269 0.02825,-0.0145 0.05306,-0.0303 0.0248,-0.0165 0.03927,-0.0282 h 0.0069 z"
               style="font-size:1.41111px;line-height:1.25;font-family:sans-serif;-inkscape-font-specification:sans-serif;stroke-width:0.264583"
               id="path1942" />
          </g>
        </g>
      </g>
      <g
         id="g2303"
         transform="matrix(1.1076898,0,0,1.1076898,6.6022103,-26.105119)">
        <g
           id="g2293">
          <path
             id="path8399"
             d="m 43.704001,131.34441 h 42.216531 c 0.661278,0 1.193659,0.3944 1.193659,0.88433 v 5.43927 c 0,0.48991 -0.532361,0.88433 -1.193659,0.88433 H 43.704001 c -0.661278,0 -1.19364,-0.3944 -1.19364,-0.88433 v -5.43927 c 0,-0.48991 0.532362,-0.88433 1.19364,-0.88433 z"
             sodipodi:nodetypes="sssssssss"
             style="fill:url(#linearGradient11528);stroke:#cccccc;stroke-width:0.0732731;stroke-linecap:round"
             inkscape:connector-curvature="0" />
          <path
             id="path8401"
             style="fill:url(#linearGradient1479);filter:url(#filter3846)"
             d="m 31.862,106.93 -7.143,14.38 c 0,6.0923 4.8764,11 10.969,11 h 18 183.54 20 c 6.0923,0 11,-4.9077 11,-11 l -0.3,-90.577 c -1.74,-6.119 -235.21,68.869 -236.07,76.197 z"
             sodipodi:nodetypes="ccsccsccc"
             inkscape:connector-curvature="0"
             transform="matrix(0.15395815,0,0,0.06119523,41.92218,130.21198)" />
          <path
             id="path8403"
             d="M 44.283243,131.81742 H 85.14086 c 0.556914,0 1.005256,0.30131 1.005256,0.67559 v 4.15531 c 0,0.37428 -0.448342,0.67559 -1.005256,0.67559 H 44.283243 c -0.556914,0 -1.005256,-0.30131 -1.005256,-0.67559 v -4.15531 c 0,-0.37428 0.448342,-0.67559 1.005256,-0.67559 z"
             sodipodi:nodetypes="sssssssss"
             style="fill:url(#linearGradient11532);stroke-width:0.20043"
             inkscape:connector-curvature="0" />
        </g>
        <g
           id="g2246">
          <rect
             style="fill:none;stroke-width:0.313745"
             id="rect2204"
             width="4.4979167"
             height="1.5875"
             x="43.807156"
             y="132.34659" />
          <text
             xml:space="preserve"
             style="font-size:1.41111px;line-height:1.25;font-family:sans-serif;-inkscape-font-specification:sans-serif;stroke-width:0.264583"
             x="43.714828"
             y="133.39114"
             id="text2219"><tspan
               sodipodi:role="line"
               id="tspan2217"
               x="43.714828"
               y="133.39114"
               style="font-size:1.41111px;stroke-width:0.264583">Space</tspan></text>
        </g>
      </g>
    </g>
    <g
       id="g1060"
       transform="translate(45.488863,-10.897484)"
       inkscape:export-xdpi="96"
       inkscape:export-ydpi="96">
      <text
         xml:space="preserve"
         style="font-style:normal;font-weight:normal;font-size:10.5833px;line-height:1.25;font-family:sans-serif;fill:#000000;fill-opacity:1;stroke:none;stroke-width:0.264583"
         x="42.304848"
         y="94.438087"
         id="text1054"><tspan
           sodipodi:role="line"
           id="tspan1052"
           x="42.304848"
           y="94.438087"
           style="font-style:normal;font-variant:normal;font-weight:normal;font-stretch:normal;font-size:22.5778px;font-family:'India Snake Pixel Labyrinth Gam';-inkscape-font-specification:'India Snake Pixel Labyrinth Gam';fill:#ffff00;stroke-width:0.264583">Pause</tspan></text>
      <text
         xml:space="preserve"
         style="font-style:normal;font-weight:normal;font-size:10.5833px;line-height:1.25;font-family:sans-serif;fill:#000000;fill-opacity:1;stroke:none;stroke-width:0.264583"
         x="42.304848"
         y="94.438087"
         id="text1050"><tspan
           sodipodi:role="line"
           id="tspan1048"
           x="42.304848"
           y="94.438087"
           style="font-style:normal;font-variant:normal;font-weight:800;font-stretch:normal;font-size:22.5778px;font-family:'India Snake Pixel Labyrinth Gam';-inkscape-font-specification:'India Snake Pixel Labyrinth Gam Ultra-Bold';stroke-width:0.264583">Pause</tspan></text>
    </g>
  </g>
</svg>
