<?xml version="1.0" encoding="UTF-8" standalone="no"?>
<svg
   xmlns:dc="http://purl.org/dc/elements/1.1/"
   xmlns:cc="http://creativecommons.org/ns#"
   xmlns:rdf="http://www.w3.org/1999/02/22-rdf-syntax-ns#"
   xmlns:svg="http://www.w3.org/2000/svg"
   xmlns="http://www.w3.org/2000/svg"
   xmlns:xlink="http://www.w3.org/1999/xlink"
   xmlns:sodipodi="http://sodipodi.sourceforge.net/DTD/sodipodi-0.dtd"
   xmlns:inkscape="http://www.inkscape.org/namespaces/inkscape"
   width="800"
   height="600"
   viewBox="0 0 211.66666 158.75"
   version="1.1"
   id="svg8"
   inkscape:version="1.0.2 (e86c870879, 2021-01-15, custom)"
   sodipodi:docname="splash.svg">
  <defs
     id="defs2">
    <linearGradient
       id="linearGradient3141">
      <stop
         id="stop3143"
         style="stop-color:#d8d8d8"
         offset="0" />
      <stop
         id="stop3145"
         style="stop-color:#a3a3a3"
         offset="1" />
    </linearGradient>
    <linearGradient
       id="linearGradient3165">
      <stop
         id="stop3171"
         style="stop-color:#d7d7d7"
         offset="0" />
      <stop
         id="stop3173"
         style="stop-color:#e7e7e7"
         offset=".5" />
      <stop
         id="stop3169"
         style="stop-color:#d7d7d7"
         offset="1" />
    </linearGradient>
    <linearGradient
       id="linearGradient2905-3-7"
       y2="384.29001"
       gradientUnits="userSpaceOnUse"
       x2="168.57001"
       y1="200.42999"
       x1="168.57001">
      <stop
         id="stop3143-2-3"
         style="stop-color:#d8d8d8"
         offset="0" />
      <stop
         id="stop3145-9-5"
         style="stop-color:#a3a3a3"
         offset="1" />
    </linearGradient>
    <linearGradient
       id="linearGradient2907-6-1"
       y2="292.35999"
       gradientUnits="userSpaceOnUse"
       x2="250.17999"
       gradientTransform="matrix(0.83174,0,0,0.83684,27.65,44.986)"
       y1="292.35999"
       x1="90.589996">
      <stop
         id="stop3171-9-8"
         style="stop-color:#d7d7d7"
         offset="0" />
      <stop
         id="stop3173-3-9"
         style="stop-color:#e7e7e7"
         offset=".5" />
      <stop
         id="stop3169-5-4"
         style="stop-color:#d7d7d7"
         offset="1" />
    </linearGradient>
    <linearGradient
       id="linearGradient3767">
      <stop
         id="stop3769"
         style="stop-color:#e4e4e4"
         offset="0" />
      <stop
         id="stop3775"
         style="stop-color:#737373"
         offset="1" />
    </linearGradient>
    <linearGradient
       inkscape:collect="always"
       xlink:href="#linearGradient3767"
       id="linearGradient3763"
       gradientUnits="userSpaceOnUse"
       x1="56.164001"
       y1="58.168999"
       x2="101.72"
       y2="132.60001" />
    <filter
       id="filter3846"
       width="1.3480999"
       y="-0.18379"
       x="-0.17407"
       height="1.3676"
       color-interpolation-filters="sRGB"
       inkscape:collect="always">
      <feGaussianBlur
         id="feGaussianBlur3848"
         stdDeviation="7.8060924"
         inkscape:collect="always" />
    </filter>
    <linearGradient
       id="linearGradient11528"
       y2="301.89001"
       xlink:href="#linearGradient3767"
       gradientUnits="userSpaceOnUse"
       x2="203.78"
       gradientTransform="matrix(0.08512855,0,0,0.06306925,34.483428,119.21239)"
       y1="196.59"
       x1="97.753998"
       inkscape:collect="always" />
    <linearGradient
       id="linearGradient11532"
       y2="178.2"
       xlink:href="#linearGradient3767"
       gradientUnits="userSpaceOnUse"
       x2="89.177002"
       gradientTransform="matrix(0.09108533,0,0,0.06121327,33.581694,119.66336)"
       y1="287.45999"
       x1="183.19"
       inkscape:collect="always" />
    <linearGradient
       id="linearGradient11606"
       y2="301.89001"
       xlink:href="#linearGradient3767"
       gradientUnits="userSpaceOnUse"
       x2="203.78"
       gradientTransform="matrix(0.06059594,0,0,0.06306925,113.4104,117.5766)"
       y1="196.59"
       x1="97.753998"
       inkscape:collect="always" />
    <linearGradient
       id="linearGradient11610"
       y2="178.2"
       xlink:href="#linearGradient3767"
       gradientUnits="userSpaceOnUse"
       x2="89.177002"
       gradientTransform="matrix(0.05881412,0,0,0.06121327,113.68098,118.02757)"
       y1="287.45999"
       x1="183.19"
       inkscape:collect="always" />
    <linearGradient
       id="linearGradient11612"
       y2="301.89001"
       xlink:href="#linearGradient3767"
       gradientUnits="userSpaceOnUse"
       x2="203.78"
       gradientTransform="matrix(0.06059594,0,0,0.06306925,121.14098,117.5766)"
       y1="196.59"
       x1="97.753998"
       inkscape:collect="always" />
    <linearGradient
       id="linearGradient11616"
       y2="178.2"
       xlink:href="#linearGradient3767"
       gradientUnits="userSpaceOnUse"
       x2="89.177002"
       gradientTransform="matrix(0.05881412,0,0,0.06121327,121.40955,118.02757)"
       y1="287.45999"
       x1="183.19"
       inkscape:collect="always" />
    <linearGradient
       id="linearGradient11618"
       y2="301.89001"
       xlink:href="#linearGradient3767"
       gradientUnits="userSpaceOnUse"
       x2="203.78"
       gradientTransform="matrix(0.06059594,0,0,0.06306925,128.86955,117.5766)"
       y1="196.59"
       x1="97.753998"
       inkscape:collect="always" />
    <linearGradient
       id="linearGradient11622"
       y2="178.2"
       xlink:href="#linearGradient3767"
       gradientUnits="userSpaceOnUse"
       x2="89.177002"
       gradientTransform="matrix(0.05881412,0,0,0.06121327,129.14013,118.02757)"
       y1="287.45999"
       x1="183.19"
       inkscape:collect="always" />
    <linearGradient
       id="linearGradient11624"
       y2="301.89001"
       xlink:href="#linearGradient3767"
       gradientUnits="userSpaceOnUse"
       x2="203.78"
       gradientTransform="matrix(0.06059594,0,0,0.06306925,121.14098,109.61179)"
       y1="196.59"
       x1="97.753998"
       inkscape:collect="always" />
    <linearGradient
       id="linearGradient11628"
       y2="178.2"
       xlink:href="#linearGradient3767"
       gradientUnits="userSpaceOnUse"
       x2="89.177002"
       gradientTransform="matrix(0.05881412,0,0,0.06121327,121.40955,110.06276)"
       y1="287.45999"
       x1="183.19"
       inkscape:collect="always" />
    <linearGradient
       inkscape:collect="always"
       xlink:href="#linearGradient3767"
       id="linearGradient1479"
       gradientUnits="userSpaceOnUse"
       x1="56.164001"
       y1="58.168999"
       x2="101.72"
       y2="132.60001" />
    <linearGradient
       inkscape:collect="always"
       xlink:href="#linearGradient3767"
       id="linearGradient1481"
       gradientUnits="userSpaceOnUse"
       x1="56.164001"
       y1="58.168999"
       x2="101.72"
       y2="132.60001" />
    <linearGradient
       inkscape:collect="always"
       xlink:href="#linearGradient3767"
       id="linearGradient1483"
       gradientUnits="userSpaceOnUse"
       x1="56.164001"
       y1="58.168999"
       x2="101.72"
       y2="132.60001" />
    <linearGradient
       inkscape:collect="always"
       xlink:href="#linearGradient3767"
       id="linearGradient1485"
       gradientUnits="userSpaceOnUse"
       x1="56.164001"
       y1="58.168999"
       x2="101.72"
       y2="132.60001" />
    <linearGradient
       inkscape:collect="always"
       xlink:href="#linearGradient3767"
       id="linearGradient1688"
       gradientUnits="userSpaceOnUse"
       gradientTransform="matrix(0.06059594,0,0,0.06306925,60.950834,99.883079)"
       x1="97.753998"
       y1="196.59"
       x2="203.78"
       y2="301.89001" />
    <linearGradient
       inkscape:collect="always"
       xlink:href="#linearGradient3767"
       id="linearGradient1690"
       gradientUnits="userSpaceOnUse"
       x1="56.164001"
       y1="58.168999"
       x2="101.72"
       y2="132.60001" />
    <linearGradient
       inkscape:collect="always"
       xlink:href="#linearGradient3767"
       id="linearGradient1692"
       gradientUnits="userSpaceOnUse"
       gradientTransform="matrix(0.05881381,0,0,0.06121438,61.220704,100.33475)"
       x1="183.19"
       y1="287.45999"
       x2="89.177002"
       y2="178.2" />
    <linearGradient
       inkscape:collect="always"
       xlink:href="#linearGradient3767"
       id="linearGradient1911"
       gradientUnits="userSpaceOnUse"
       gradientTransform="matrix(0.06059594,0,0,0.06306925,39.784167,99.883079)"
       x1="97.753998"
       y1="196.59"
       x2="203.78"
       y2="301.89001" />
    <linearGradient
       inkscape:collect="always"
       xlink:href="#linearGradient3767"
       id="linearGradient1913"
       gradientUnits="userSpaceOnUse"
       x1="56.164001"
       y1="58.168999"
       x2="101.72"
       y2="132.60001" />
    <linearGradient
       inkscape:collect="always"
       xlink:href="#linearGradient3767"
       id="linearGradient1915"
       gradientUnits="userSpaceOnUse"
       gradientTransform="matrix(0.05881381,0,0,0.06121438,40.054037,100.33475)"
       x1="183.19"
       y1="287.45999"
       x2="89.177002"
       y2="178.2" />
  </defs>
  <sodipodi:namedview
     id="base"
     pagecolor="#ffffff"
     bordercolor="#666666"
     borderopacity="1.0"
     inkscape:pageopacity="0.0"
     inkscape:pageshadow="2"
     inkscape:zoom="1.2383333"
     inkscape:cx="400"
     inkscape:cy="300"
     inkscape:document-units="px"
     inkscape:current-layer="layer1"
     inkscape:document-rotation="0"
     showgrid="false"
     units="px"
     inkscape:showpageshadow="true"
     showborder="true"
     inkscape:window-width="1920"
     inkscape:window-height="1017"
     inkscape:window-x="-8"
     inkscape:window-y="-8"
     inkscape:window-maximized="1" />
  <metadata
     id="metadata5">
    <rdf:RDF>
      <cc:Work
         rdf:about="">
        <dc:format>image/svg+xml</dc:format>
        <dc:type
           rdf:resource="http://purl.org/dc/dcmitype/StillImage" />
        <dc:title></dc:title>
      </cc:Work>
    </rdf:RDF>
  </metadata>
  <g
     inkscape:label="Layer 1"
     inkscape:groupmode="layer"
     id="layer1">
    <rect
       style="fill:#00ffff;stroke-width:0.686723"
       id="rect847"
       width="211.66666"
       height="158.75"
       x="3.4195964e-06"
       y="-1.25e-06" />
    <g
       id="g1051">
      <g
         id="g1019">
        <g
           id="g899"
           style="fill:#00ff00">
          <path
             id="rect853"
             style="fill:#00ff00;stroke-width:0.525306"
             d="m 53.142502,26.692193 v 13.49375 h 11.377083 v 1.190625 H 53.142502 v 6.746875 H 66.636251 V 41.376568 40.185943 39.681065 26.692193 Z" />
          <path
             id="rect861"
             style="fill:#00ff00;stroke-width:0.492948"
             d="m 69.222657,34.629693 v 11.377083 2.116667 h 2.116667 3.174999 v -2.116667 -9.260417 h 6.085417 v 9.260417 h -1.5875 v 2.116667 h 3.704167 V 46.006776 34.629693 h -10.31875 v 2.116666 9.260417 H 71.339324 V 34.629693 Z" />
          <path
             id="rect885"
             style="fill:#00ff00;stroke-width:2.01854"
             d="m 383.58008,99.927734 v 7.999996 22.95704 1.04296 49.95704 h 51 v -51 h -43 v -22.95704 h 6 v -7.999996 z"
             transform="scale(0.26458333)" />
          <path
             id="rect874"
             style="fill:#00ff00;stroke-width:1.92479"
             d="m 322.79688,131.16016 v 8 h 43 v 4.72461 h -43 v 38 h 51 v -36.35743 -1.64257 -6.35743 -6.36718 z"
             transform="scale(0.26458333)" />
          <rect
             style="fill:#00ff00;stroke-width:0.534072"
             id="rect891"
             width="13.49375"
             height="13.49375"
             x="117.59032"
             y="34.629929" />
        </g>
        <text
           xml:space="preserve"
           style="font-size:14.1111px;line-height:1.25;font-family:'India Snake Pixel Labyrinth Gam';-inkscape-font-specification:'India Snake Pixel Labyrinth Gam';stroke-width:0.264583"
           x="53.354858"
           y="47.889584"
           id="text835"><tspan
             sodipodi:role="line"
             id="tspan833"
             x="53.354858"
             y="47.889584"
             style="font-style:normal;font-variant:normal;font-weight:800;font-stretch:normal;font-size:50.8px;font-family:'India Snake Pixel Labyrinth Gam';-inkscape-font-specification:'India Snake Pixel Labyrinth Gam Ultra-Bold';stroke-width:0.264583">Snake</tspan></text>
      </g>
      <g
         id="g1030">
        <g
           id="g1009"
           style="fill:#0000ff">
          <path
             id="rect905"
             style="fill:#0000ff;stroke-width:2.04174"
             d="m 415.12695,196.28711 v 41 h 4 6 0.14453 v -18 h 18.5 v -23 h -22.5 v 21 2 14 h -2.14453 v -37 z"
             transform="scale(0.26458333)" />
          <path
             id="rect913"
             style="fill:#0000ff;stroke-width:2.04174"
             d="m 448.58789,211.70312 v 4 21.5 h 4 15.5 v -4 -17.5 h 2 v 33 h -17.5 v -2 h 3 v -4 h -3 -4 v 4 2 4 h 25.5 v -4 -37 h -6 -4 v 21.5 h -11.5 v -17.5 h 2 v 15.5 h 4 v -19.5 z"
             transform="scale(0.26458333)" />
          <path
             id="rect917"
             style="fill:#0000ff;stroke-width:2.04174"
             d="m 509.48828,196.28711 v 41 h 4 6 v -4 -17.58399 h 11.5 v 17.5 h -5 v -15.5 h -4 v 15.5 4 h 4 9 v -4 -21.5 h -15.5 -4 v 4 17.58399 h -2 v -37 z"
             transform="scale(0.26458333)" />
          <path
             id="rect921"
             style="fill:#0000ff;stroke-width:1.40807"
             d="m 491.17969,196.1582 v 9.5 h -12 v 4 6 h 4 17.5 v 2 h -8 -4 v 4 15.5 h 4 v -15.5 h 12 v -4 -6 h -21.5 v -2 h 12 v -4 -9.5 z"
             transform="scale(0.26458333)" />
          <path
             id="rect963"
             style="fill:#0000ff;stroke-width:2.99562"
             d="m 540.14258,211.75977 v 4 17.5 4 h 4 21.5 v -4 h -21.5 v -17.5 h 17.5 v 11.5 h -3 v 4 h 7 v -4 -15.5 z"
             transform="scale(0.26458333)" />
          <path
             id="rect973"
             style="fill:#0000ff;stroke-width:1.61019"
             d="m 575.76172,211.67773 v 4 17.58399 h -2 v -21.5 h -4 v 25.5 h 4 6 v -4 -17.58399 h 11.5 v 17.5 h -3 v 4 h 3 4 v -4 -21.5 h -15.5 z"
             transform="scale(0.26458333)" />
        </g>
        <text
           xml:space="preserve"
           style="font-size:25.4px;line-height:1.25;font-family:'India Snake Pixel Labyrinth Gam';-inkscape-font-specification:'India Snake Pixel Labyrinth Gam';stroke-width:0.264583"
           x="109.97569"
           y="62.663918"
           id="text839"><tspan
             sodipodi:role="line"
             id="tspan837"
             x="109.97569"
             y="62.663918"
             style="font-style:normal;font-variant:normal;font-weight:800;font-stretch:normal;font-size:25.4px;font-family:'India Snake Pixel Labyrinth Gam';-inkscape-font-specification:'India Snake Pixel Labyrinth Gam Ultra-Bold';stroke-width:0.264583">Python</tspan></text>
      </g>
    </g>
    <g
       id="g2845"
       transform="translate(0,-5.2916664)">
      <g
         id="g2765">
        <g
           id="g2288"
           transform="matrix(1.1076898,0,0,1.1076898,59.224921,6.0798934)">
          <g
             id="g2268">
            <rect
               id="rect1670"
               style="fill:url(#linearGradient1688);stroke:#cccccc;stroke-width:0.0618202;stroke-linecap:round"
               rx="0.84967631"
               ry="0.88435704"
               height="7.2081847"
               width="6.9255099"
               y="112.01508"
               x="66.664185" />
            <path
               id="path1672"
               style="fill:url(#linearGradient1690);filter:url(#filter3846)"
               d="m 31.862,106.93 -7.143,14.38 c 0,6.0923 4.8764,11 10.969,11 h 18 47.656 20 c 6.0923,0 11,-4.9077 11,-11 l -0.29,-90.577 c -1.75,-6.119 -99.33,68.869 -100.19,76.197 z"
               sodipodi:nodetypes="ccsccsccc"
               transform="matrix(0.05879624,0,0,0.06119609,65.570547,110.88362)"
               inkscape:connector-curvature="0" />
            <rect
               id="rect1674"
               style="fill:url(#linearGradient1692);stroke-width:0.0618202"
               rx="0.6491037"
               ry="0.67559779"
               height="5.5065131"
               width="5.2905707"
               y="112.48747"
               x="67.481262" />
          </g>
          <g
             id="g2241">
            <rect
               style="fill:none;stroke-width:0.443702"
               id="rect1811"
               width="4.4979167"
               height="3.175"
               x="67.877586"
               y="113.65323" />
            <g
               id="g1856">
              <path
                 d="m 68.548698,113.9633 q 0,0.0682 -0.02412,0.12678 -0.02343,0.0579 -0.06615,0.10059 -0.05305,0.0531 -0.125401,0.0799 -0.07235,0.0262 -0.18259,0.0262 h -0.136426 v 0.38241 h -0.136425 v -1.02595 h 0.278363 q 0.09233,0 0.156407,0.0159 0.06408,0.0152 0.113688,0.0482 0.05857,0.0393 0.09026,0.0978 0.03238,0.0586 0.03238,0.14814 z m -0.141938,0.003 q 0,-0.0531 -0.0186,-0.0923 -0.0186,-0.0393 -0.0565,-0.0641 -0.03307,-0.0214 -0.07579,-0.0303 -0.04203,-0.01 -0.106798,-0.01 h -0.135048 v 0.40997 h 0.115066 q 0.08268,0 0.134359,-0.0145 0.05168,-0.0152 0.08406,-0.0475 0.03238,-0.0331 0.04548,-0.0696 0.01378,-0.0365 0.01378,-0.082 z"
                 style="font-size:1.41111px;line-height:1.25;font-family:sans-serif;-inkscape-font-specification:sans-serif;fill:#000000;stroke-width:0.264583"
                 id="path1766" />
              <path
                 d="m 69.281813,114.67919 h -0.128846 v -0.082 q -0.01722,0.0117 -0.04685,0.0331 -0.02894,0.0207 -0.0565,0.0331 -0.03238,0.0159 -0.07441,0.0262 -0.04203,0.011 -0.09853,0.011 -0.104042,0 -0.176389,-0.0689 -0.07235,-0.0689 -0.07235,-0.1757 0,-0.0875 0.03721,-0.14125 0.0379,-0.0544 0.107487,-0.0854 0.07028,-0.031 0.168809,-0.042 0.09853,-0.011 0.211529,-0.0165 v -0.02 q 0,-0.0441 -0.01585,-0.073 -0.01516,-0.0289 -0.0441,-0.0455 -0.02756,-0.0159 -0.06614,-0.0214 -0.03858,-0.006 -0.08062,-0.006 -0.05099,0 -0.113688,0.0138 -0.0627,0.0131 -0.129535,0.0386 h -0.0069 v -0.1316 q 0.0379,-0.0103 0.109554,-0.0227 0.07166,-0.0124 0.141248,-0.0124 0.08131,0 0.141249,0.0138 0.06063,0.0131 0.104731,0.0455 0.04341,0.0317 0.06615,0.082 0.02274,0.0503 0.02274,0.12471 z m -0.128846,-0.18948 v -0.21429 q -0.05926,0.003 -0.139871,0.0103 -0.07993,0.007 -0.126779,0.02 -0.05581,0.0159 -0.09026,0.0496 -0.03445,0.0331 -0.03445,0.0916 0,0.0661 0.03996,0.0999 0.03996,0.0331 0.121956,0.0331 0.06821,0 0.124712,-0.0262 0.0565,-0.0269 0.104731,-0.0641 z"
                 style="font-size:1.41111px;line-height:1.25;font-family:sans-serif;-inkscape-font-specification:sans-serif;fill:#000000;stroke-width:0.264583"
                 id="path1768" />
              <path
                 d="m 70.169269,114.67919 h -0.129535 v -0.0854 q -0.06546,0.0517 -0.125401,0.0792 -0.05994,0.0276 -0.132292,0.0276 -0.121267,0 -0.188791,-0.0737 -0.06752,-0.0744 -0.06752,-0.21773 v -0.49954 h 0.129536 v 0.43822 q 0,0.0586 0.0055,0.1006 0.0055,0.0413 0.02343,0.071 0.0186,0.0303 0.04823,0.0441 0.02963,0.0138 0.08613,0.0138 0.0503,0 0.109554,-0.0262 0.05994,-0.0262 0.111621,-0.0668 v -0.57465 h 0.129535 z"
                 style="font-size:1.41111px;line-height:1.25;font-family:sans-serif;-inkscape-font-specification:sans-serif;fill:#000000;stroke-width:0.264583"
                 id="path1770" />
              <path
                 d="m 70.974043,114.45732 q 0,0.10542 -0.0875,0.17295 -0.08682,0.0675 -0.237712,0.0675 -0.08544,0 -0.157096,-0.02 -0.07097,-0.0207 -0.1192,-0.0448 v -0.14538 h 0.0069 q 0.06132,0.0462 0.136426,0.0737 0.0751,0.0269 0.144005,0.0269 0.08544,0 0.133669,-0.0276 0.04823,-0.0276 0.04823,-0.0868 0,-0.0455 -0.02618,-0.0689 -0.02618,-0.0234 -0.100597,-0.04 -0.02756,-0.006 -0.07235,-0.0145 -0.0441,-0.008 -0.08061,-0.0179 -0.101286,-0.0269 -0.144005,-0.0785 -0.04203,-0.0524 -0.04203,-0.12815 0,-0.0476 0.01929,-0.0896 0.01998,-0.042 0.05994,-0.0751 0.03859,-0.0324 0.09784,-0.051 0.05994,-0.0193 0.133669,-0.0193 0.0689,0 0.139182,0.0172 0.07097,0.0165 0.117822,0.0406 v 0.13849 h -0.0069 q -0.04961,-0.0365 -0.120578,-0.0613 -0.07097,-0.0255 -0.139182,-0.0255 -0.07097,0 -0.119889,0.0276 -0.04892,0.0269 -0.04892,0.0806 0,0.0475 0.02963,0.0717 0.02894,0.0241 0.09371,0.0393 0.03583,0.008 0.07993,0.0165 0.04479,0.008 0.07441,0.0152 0.09026,0.0207 0.139182,0.071 0.04892,0.051 0.04892,0.13504 z"
                 style="font-size:1.41111px;line-height:1.25;font-family:sans-serif;-inkscape-font-specification:sans-serif;fill:#000000;stroke-width:0.264583"
                 id="path1772" />
              <path
                 d="m 71.803621,114.30781 h -0.567062 q 0,0.071 0.02136,0.12402 0.02136,0.0524 0.05857,0.0861 0.03583,0.0331 0.08475,0.0496 0.04961,0.0165 0.108864,0.0165 0.07855,0 0.157786,-0.031 0.07993,-0.0317 0.113688,-0.062 h 0.0069 v 0.14124 q -0.06546,0.0276 -0.13367,0.0462 -0.06821,0.0186 -0.143315,0.0186 -0.191548,0 -0.299035,-0.10335 -0.107486,-0.10404 -0.107486,-0.2949 0,-0.18879 0.102663,-0.29972 0.103353,-0.11094 0.271474,-0.11094 0.155718,0 0.239778,0.091 0.08475,0.091 0.08475,0.25838 z m -0.12609,-0.0992 q -6.89e-4,-0.10198 -0.05168,-0.15779 -0.0503,-0.0558 -0.153652,-0.0558 -0.104041,0 -0.166053,0.0613 -0.06132,0.0613 -0.06959,0.15227 z"
                 style="font-size:1.41111px;line-height:1.25;font-family:sans-serif;-inkscape-font-specification:sans-serif;fill:#000000;stroke-width:0.264583"
                 id="path1774" />
            </g>
            <g
               id="g1844">
              <path
                 d="m 68.651356,116.4913 q 0,0.0765 -0.02894,0.13505 -0.02894,0.0586 -0.07786,0.0965 -0.05788,0.0455 -0.127468,0.0648 -0.0689,0.0193 -0.1757,0.0193 H 67.877586 V 115.781 h 0.303857 q 0.11231,0 0.168121,0.008 0.05581,0.008 0.106798,0.0344 0.0565,0.0296 0.08199,0.0765 0.02549,0.0462 0.02549,0.11093 0,0.073 -0.03721,0.12472 -0.03721,0.051 -0.09922,0.082 v 0.006 q 0.104042,0.0214 0.163986,0.0916 0.05995,0.0696 0.05995,0.17639 z m -0.229443,-0.46233 q 0,-0.0372 -0.0124,-0.0627 -0.0124,-0.0255 -0.03996,-0.0413 -0.03238,-0.0186 -0.07855,-0.0227 -0.04616,-0.005 -0.114377,-0.005 h -0.162608 v 0.29628 h 0.176388 q 0.06408,0 0.101975,-0.006 0.0379,-0.007 0.07028,-0.0276 0.03238,-0.0207 0.04547,-0.053 0.01378,-0.0331 0.01378,-0.0779 z m 0.0875,0.46784 q 0,-0.062 -0.0186,-0.0985 -0.0186,-0.0365 -0.06752,-0.062 -0.03307,-0.0172 -0.08062,-0.022 -0.04685,-0.006 -0.114377,-0.006 h -0.214284 v 0.38172 h 0.180523 q 0.08957,0 0.14676,-0.009 0.05719,-0.01 0.09371,-0.0345 0.03858,-0.0269 0.0565,-0.0613 0.01791,-0.0344 0.01791,-0.0889 z"
                 style="font-size:1.41111px;line-height:1.25;font-family:sans-serif;-inkscape-font-specification:sans-serif;stroke-width:0.264583"
                 id="path1823" />
              <path
                 d="m 69.314881,116.17848 h -0.0069 q -0.02894,-0.007 -0.0565,-0.01 -0.02687,-0.003 -0.06408,-0.003 -0.05994,0 -0.115755,0.0269 -0.05581,0.0262 -0.107487,0.0682 v 0.54639 h -0.129535 v -0.76963 h 0.129535 v 0.11368 q 0.07717,-0.062 0.135737,-0.0875 0.05925,-0.0262 0.120578,-0.0262 0.03376,0 0.04892,0.002 0.01516,10e-4 0.04548,0.006 z"
                 style="font-size:1.41111px;line-height:1.25;font-family:sans-serif;-inkscape-font-specification:sans-serif;stroke-width:0.264583"
                 id="path1825" />
              <path
                 d="m 70.081069,116.43549 h -0.567062 q 0,0.071 0.02136,0.12402 0.02136,0.0524 0.05857,0.0861 0.03583,0.0331 0.08475,0.0496 0.04961,0.0165 0.108865,0.0165 0.07855,0 0.157785,-0.031 0.07993,-0.0317 0.113688,-0.062 h 0.0069 v 0.14125 q -0.06546,0.0276 -0.13367,0.0462 -0.06821,0.0186 -0.143315,0.0186 -0.191548,0 -0.299035,-0.10335 -0.107486,-0.10404 -0.107486,-0.2949 0,-0.18879 0.102663,-0.29972 0.103353,-0.11093 0.271474,-0.11093 0.155718,0 0.239778,0.091 0.08475,0.0909 0.08475,0.25838 z m -0.12609,-0.0992 q -6.89e-4,-0.10197 -0.05168,-0.15779 -0.0503,-0.0558 -0.153652,-0.0558 -0.104041,0 -0.166053,0.0613 -0.06132,0.0613 -0.06959,0.15227 z"
                 style="font-size:1.41111px;line-height:1.25;font-family:sans-serif;-inkscape-font-specification:sans-serif;stroke-width:0.264583"
                 id="path1827" />
              <path
                 d="m 70.875508,116.80687 h -0.128847 v -0.082 q -0.01722,0.0117 -0.04685,0.0331 -0.02894,0.0207 -0.0565,0.0331 -0.03238,0.0159 -0.07441,0.0262 -0.04203,0.011 -0.09853,0.011 -0.104042,0 -0.176389,-0.0689 -0.07235,-0.0689 -0.07235,-0.1757 0,-0.0875 0.03721,-0.14125 0.0379,-0.0544 0.107487,-0.0854 0.07028,-0.031 0.16881,-0.042 0.09853,-0.011 0.211528,-0.0165 v -0.02 q 0,-0.0441 -0.01585,-0.073 -0.01516,-0.0289 -0.0441,-0.0455 -0.02756,-0.0159 -0.06615,-0.0214 -0.03858,-0.006 -0.08061,-0.006 -0.05099,0 -0.113688,0.0138 -0.0627,0.0131 -0.129536,0.0386 h -0.0069 v -0.1316 q 0.0379,-0.0103 0.109554,-0.0227 0.07166,-0.0124 0.141249,-0.0124 0.0813,0 0.141249,0.0138 0.06063,0.0131 0.10473,0.0455 0.04341,0.0317 0.06615,0.082 0.02274,0.0503 0.02274,0.12471 z m -0.128847,-0.18948 v -0.21429 q -0.05926,0.003 -0.13987,0.0103 -0.07993,0.007 -0.12678,0.02 -0.05581,0.0159 -0.09026,0.0496 -0.03445,0.0331 -0.03445,0.0916 0,0.0662 0.03996,0.0999 0.03996,0.0331 0.121956,0.0331 0.06821,0 0.124713,-0.0262 0.0565,-0.0269 0.10473,-0.0641 z"
                 style="font-size:1.41111px;line-height:1.25;font-family:sans-serif;-inkscape-font-specification:sans-serif;stroke-width:0.264583"
                 id="path1829" />
              <path
                 d="m 71.823597,116.80687 h -0.170876 l -0.30868,-0.33693 -0.08406,0.0799 v 0.257 h -0.129535 v -1.07211 h 0.129535 v 0.68764 l 0.374137,-0.38516 h 0.163298 l -0.357601,0.35553 z"
                 style="font-size:1.41111px;line-height:1.25;font-family:sans-serif;-inkscape-font-specification:sans-serif;stroke-width:0.264583"
                 id="path1831" />
            </g>
          </g>
        </g>
        <g
           id="g2202"
           transform="matrix(1.1076898,0,0,1.1076898,1.1157782,-24.293171)">
          <g
             id="g2149">
            <g
               id="g2139">
              <rect
                 id="rect9433"
                 style="fill:url(#linearGradient11606);stroke:#cccccc;stroke-width:0.0618206;stroke-linecap:round"
                 rx="0.84964198"
                 ry="0.88433641"
                 height="7.2078571"
                 width="6.9252505"
                 y="129.70862"
                 x="119.12466" />
              <path
                 id="path9435"
                 style="fill:url(#linearGradient1481);filter:url(#filter3846)"
                 d="m 31.862,106.93 -7.143,14.38 c 0,6.0923 4.8764,11 10.969,11 h 18 47.656 20 c 6.0923,0 11,-4.9077 11,-11 l -0.29,-90.577 c -1.75,-6.119 -99.33,68.869 -100.19,76.197 z"
                 sodipodi:nodetypes="ccsccsccc"
                 inkscape:connector-curvature="0"
                 transform="matrix(0.05879608,0,0,0.06119523,118.03031,128.57619)" />
              <rect
                 id="rect9437"
                 style="fill:url(#linearGradient11610);stroke-width:0.20043"
                 rx="0.64909196"
                 ry="0.67558873"
                 height="5.5064082"
                 width="5.2905455"
                 y="130.18164"
                 x="119.9424" />
            </g>
            <g
               id="g2089">
              <rect
                 style="fill:none;stroke-width:0.620921"
                 id="rect2080"
                 width="2.6458333"
                 height="2.6458333"
                 x="121.26476"
                 y="131.61192" />
              <g
                 aria-label="←"
                 id="text1955"
                 style="font-size:2.11667px;line-height:1.25;font-family:sans-serif;-inkscape-font-specification:sans-serif;stroke-width:0.264583"
                 transform="translate(12.56288,28.561185)">
                <path
                   d="m 109.47553,104.0021 h 0.0785 q -0.061,0.12195 -0.092,0.17156 -0.03,0.0486 -0.10955,0.1478 h 1.64848 v 0.10439 h -1.64848 q 0.10749,0.11162 0.20464,0.31936 h -0.0806 q -0.13332,-0.14883 -0.22944,-0.22531 -0.0961,-0.0775 -0.19844,-0.12713 v -0.0465 q 0.0899,-0.0382 0.19017,-0.11679 0.10025,-0.0785 0.23668,-0.22737 z"
                   style="font-size:2.11667px;stroke-width:0.264583"
                   id="path2054" />
              </g>
            </g>
          </g>
          <g
             id="g2119">
            <g
               id="g2109">
              <rect
                 id="rect9445"
                 style="fill:url(#linearGradient11612);stroke:#cccccc;stroke-width:0.0618206;stroke-linecap:round"
                 rx="0.84964198"
                 ry="0.88433641"
                 height="7.2078571"
                 width="6.9252505"
                 y="129.70862"
                 x="126.85323" />
              <path
                 id="path9447"
                 style="fill:url(#linearGradient1483);filter:url(#filter3846)"
                 d="m 31.862,106.93 -7.143,14.38 c 0,6.0923 4.8764,11 10.969,11 h 18 47.656 20 c 6.0923,0 11,-4.9077 11,-11 l -0.29,-90.577 c -1.75,-6.119 -99.33,68.869 -100.19,76.197 z"
                 sodipodi:nodetypes="ccsccsccc"
                 inkscape:connector-curvature="0"
                 transform="matrix(0.05879608,0,0,0.06119523,125.76088,128.57619)" />
              <rect
                 id="rect9449"
                 style="fill:url(#linearGradient11616);stroke-width:0.20043"
                 rx="0.64909196"
                 ry="0.67558873"
                 height="5.5064082"
                 width="5.2905455"
                 y="130.18164"
                 x="127.67098" />
            </g>
            <g
               id="g2094">
              <rect
                 style="fill:none;stroke-width:0.620921"
                 id="rect2082"
                 width="2.6458333"
                 height="2.6458333"
                 x="128.99333"
                 y="131.61192" />
              <g
                 aria-label="↓"
                 id="text2011"
                 style="font-size:2.11667px;line-height:1.25;font-family:sans-serif;-inkscape-font-specification:sans-serif;stroke-width:0.264583"
                 transform="translate(7.4488535,20.868065)">
                <path
                   d="m 122.49584,112.5536 v -0.0786 q 0.12299,0.061 0.17156,0.092 0.0486,0.031 0.1478,0.10955 v -1.52342 h 0.10439 v 1.52342 q 0.11162,-0.10645 0.31936,-0.20361 v 0.0796 q -0.14883,0.13332 -0.22635,0.22944 -0.0765,0.0961 -0.12505,0.19844 H 122.84 q -0.0382,-0.0889 -0.11679,-0.18914 -0.0775,-0.10025 -0.22737,-0.23771 z"
                   style="font-size:2.11667px;stroke-width:0.264583"
                   id="path2063" />
              </g>
            </g>
          </g>
          <g
             id="g2164">
            <g
               id="g2154">
              <rect
                 id="rect9471"
                 style="fill:url(#linearGradient11624);stroke:#cccccc;stroke-width:0.0618206;stroke-linecap:round"
                 rx="0.84964198"
                 ry="0.88433641"
                 height="7.2078571"
                 width="6.9252505"
                 y="121.7438"
                 x="126.85323" />
              <path
                 id="path9473"
                 style="fill:url(#linearGradient3763);filter:url(#filter3846)"
                 d="m 31.862,106.93 -7.143,14.38 c 0,6.0923 4.8764,11 10.969,11 h 18 47.656 20 c 6.0923,0 11,-4.9077 11,-11 l -0.29,-90.577 c -1.75,-6.119 -99.33,68.869 -100.19,76.197 z"
                 sodipodi:nodetypes="ccsccsccc"
                 transform="matrix(0.05879608,0,0,0.06119523,125.76088,120.61138)"
                 inkscape:connector-curvature="0" />
              <rect
                 id="rect9475"
                 style="fill:url(#linearGradient11628);stroke-width:0.20043"
                 rx="0.64909196"
                 ry="0.67558873"
                 height="5.5064082"
                 width="5.2905455"
                 y="122.21683"
                 x="127.67098" />
            </g>
            <g
               id="g2099">
              <rect
                 style="fill:none;stroke-width:0.620921"
                 id="rect2066"
                 width="2.6458333"
                 height="2.6458333"
                 x="128.99333"
                 y="123.64712" />
              <g
                 aria-label="↑"
                 id="text2015"
                 style="font-size:2.11667px;line-height:1.25;font-family:sans-serif;-inkscape-font-specification:sans-serif;stroke-width:0.264583"
                 transform="translate(7.8265385,19.173084)">
                <path
                   d="m 122.11813,105.31015 q 0.14986,-0.13746 0.22738,-0.23771 0.0785,-0.10026 0.11678,-0.18914 h 0.0476 q 0.0486,0.10232 0.12505,0.19844 0.0775,0.0961 0.22635,0.22944 v 0.0796 q -0.20774,-0.0971 -0.31936,-0.2036 v 1.52342 h -0.10439 v -1.52342 q -0.0992,0.0785 -0.14883,0.10955 -0.0486,0.031 -0.17053,0.092 z"
                   style="font-size:2.11667px;stroke-width:0.264583"
                   id="path2057" />
              </g>
            </g>
          </g>
          <g
             id="g2134">
            <g
               id="g2124">
              <rect
                 id="rect9457"
                 style="fill:url(#linearGradient11618);stroke:#cccccc;stroke-width:0.0618206;stroke-linecap:round"
                 rx="0.84964198"
                 ry="0.88433641"
                 height="7.2078571"
                 width="6.9252505"
                 y="129.70862"
                 x="134.5838" />
              <path
                 id="path9459"
                 style="fill:url(#linearGradient1485);filter:url(#filter3846)"
                 d="m 31.862,106.93 -7.143,14.38 c 0,6.0923 4.8764,11 10.969,11 h 18 47.656 20 c 6.0923,0 11,-4.9077 11,-11 l -0.29,-90.577 c -1.75,-6.119 -99.33,68.869 -100.19,76.197 z"
                 sodipodi:nodetypes="ccsccsccc"
                 transform="matrix(0.05879608,0,0,0.06119523,133.48946,128.57619)"
                 inkscape:connector-curvature="0" />
              <rect
                 id="rect9461"
                 style="fill:url(#linearGradient11622);stroke-width:0.20043"
                 rx="0.64909196"
                 ry="0.67558873"
                 height="5.5064082"
                 width="5.2905455"
                 y="130.18164"
                 x="135.39955" />
            </g>
            <g
               id="g2104">
              <rect
                 style="fill:none;stroke-width:0.620921"
                 id="rect2084"
                 width="2.6458333"
                 height="2.6458333"
                 x="136.72191"
                 y="131.61192" />
              <g
                 aria-label="→"
                 id="text2019"
                 style="font-size:2.11667px;line-height:1.25;font-family:sans-serif;-inkscape-font-specification:sans-serif;stroke-width:0.264583"
                 transform="translate(29.002005,17.381205)">
                <path
                   d="m 109.59215,115.18209 q 0.13746,0.14986 0.23771,0.22841 0.10025,0.0775 0.18914,0.11576 v 0.0465 q -0.10232,0.0496 -0.19844,0.12712 -0.0961,0.0765 -0.22945,0.22531 h -0.0796 q 0.0972,-0.20774 0.20361,-0.31936 h -1.64848 v -0.10439 h 1.64848 q -0.0786,-0.10025 -0.10956,-0.14883 -0.031,-0.0486 -0.092,-0.17053 z"
                   style="font-size:2.11667px;stroke-width:0.264583"
                   id="path2060" />
              </g>
            </g>
          </g>
        </g>
      </g>
      <g
         id="g2707">
        <g
           id="g2263"
           transform="matrix(1.1076898,0,0,1.1076898,3.2713609,6.0798934)">
          <g
             id="g2251">
            <rect
               id="rect1858"
               style="fill:url(#linearGradient1911);stroke:#cccccc;stroke-width:0.0618202;stroke-linecap:round"
               rx="0.84967631"
               ry="0.88435704"
               height="7.2081847"
               width="6.9255099"
               y="112.01508"
               x="45.497517" />
            <path
               id="path1860"
               style="fill:url(#linearGradient1913);filter:url(#filter3846)"
               d="m 31.862,106.93 -7.143,14.38 c 0,6.0923 4.8764,11 10.969,11 h 18 47.656 20 c 6.0923,0 11,-4.9077 11,-11 l -0.29,-90.577 c -1.75,-6.119 -99.33,68.869 -100.19,76.197 z"
               sodipodi:nodetypes="ccsccsccc"
               transform="matrix(0.05879624,0,0,0.06119609,44.40388,110.88362)"
               inkscape:connector-curvature="0" />
            <rect
               id="rect1862"
               style="fill:url(#linearGradient1915);stroke-width:0.0618202"
               rx="0.6491037"
               ry="0.67559779"
               height="5.5065131"
               width="5.2905707"
               y="112.48747"
               x="46.314594" />
          </g>
          <g
             id="g2226">
            <rect
               style="fill:none;stroke-width:0.443702"
               id="rect1864"
               width="4.4979167"
               height="3.175"
               x="46.710918"
               y="113.65323" />
            <g
               id="g1951">
              <path
                 d="M 47.386847,114.67918 H 46.71092 v -1.02595 h 0.675927 v 0.12126 h -0.539501 v 0.28112 h 0.539501 v 0.12127 h -0.539501 v 0.38103 h 0.539501 z"
                 style="font-size:1.41111px;line-height:1.25;font-family:sans-serif;-inkscape-font-specification:sans-serif;stroke-width:0.264583"
                 id="path1938" />
              <path
                 d="m 48.142701,114.45731 q 0,0.10542 -0.08751,0.17295 -0.08682,0.0675 -0.237711,0.0675 -0.08544,0 -0.157096,-0.02 -0.07097,-0.0207 -0.119201,-0.0448 v -0.14538 h 0.0069 q 0.06132,0.0462 0.136425,0.0737 0.0751,0.0269 0.144005,0.0269 0.08544,0 0.13367,-0.0276 0.04823,-0.0276 0.04823,-0.0868 0,-0.0455 -0.02618,-0.0689 -0.02618,-0.0234 -0.100596,-0.04 -0.02756,-0.006 -0.07235,-0.0145 -0.0441,-0.008 -0.08062,-0.0179 -0.101285,-0.0269 -0.144004,-0.0785 -0.04203,-0.0524 -0.04203,-0.12816 0,-0.0475 0.01929,-0.0896 0.01998,-0.042 0.05994,-0.0751 0.03859,-0.0324 0.09784,-0.051 0.05994,-0.0193 0.13367,-0.0193 0.0689,0 0.139182,0.0172 0.07097,0.0165 0.117822,0.0407 v 0.13849 h -0.0069 q -0.04961,-0.0365 -0.120579,-0.0613 -0.07097,-0.0255 -0.139181,-0.0255 -0.07097,0 -0.11989,0.0276 -0.04892,0.0269 -0.04892,0.0806 0,0.0475 0.02963,0.0717 0.02894,0.0241 0.09371,0.0393 0.03583,0.008 0.07993,0.0165 0.04479,0.008 0.07441,0.0152 0.09026,0.0207 0.139181,0.071 0.04892,0.051 0.04892,0.13505 z"
                 style="font-size:1.41111px;line-height:1.25;font-family:sans-serif;-inkscape-font-specification:sans-serif;stroke-width:0.264583"
                 id="path1940" />
              <path
                 d="m 48.897176,114.63095 q -0.06477,0.031 -0.123334,0.0482 -0.05788,0.0172 -0.123335,0.0172 -0.08337,0 -0.152962,-0.0241 -0.06959,-0.0248 -0.1192,-0.0744 -0.0503,-0.0496 -0.07786,-0.1254 -0.02756,-0.0758 -0.02756,-0.17708 0,-0.18879 0.103353,-0.29628 0.104042,-0.10748 0.274229,-0.10748 0.06615,0 0.129536,0.0186 0.06408,0.0186 0.117133,0.0455 v 0.144 h -0.0069 q -0.05926,-0.0462 -0.122645,-0.071 -0.0627,-0.0248 -0.122646,-0.0248 -0.110243,0 -0.174322,0.0744 -0.06339,0.0737 -0.06339,0.21704 0,0.13918 0.06201,0.21429 0.0627,0.0744 0.1757,0.0744 0.03927,0 0.07993,-0.0103 0.04065,-0.0103 0.07304,-0.0269 0.02825,-0.0145 0.05306,-0.0303 0.0248,-0.0165 0.03927,-0.0282 h 0.0069 z"
                 style="font-size:1.41111px;line-height:1.25;font-family:sans-serif;-inkscape-font-specification:sans-serif;stroke-width:0.264583"
                 id="path1942" />
            </g>
          </g>
        </g>
        <g
           id="g2303"
           transform="matrix(1.1076898,0,0,1.1076898,6.6022103,-26.105119)">
          <g
             id="g2293">
            <path
               id="path8399"
               d="m 43.704001,131.34441 h 42.216531 c 0.661278,0 1.193659,0.3944 1.193659,0.88433 v 5.43927 c 0,0.48991 -0.532361,0.88433 -1.193659,0.88433 H 43.704001 c -0.661278,0 -1.19364,-0.3944 -1.19364,-0.88433 v -5.43927 c 0,-0.48991 0.532362,-0.88433 1.19364,-0.88433 z"
               sodipodi:nodetypes="sssssssss"
               style="fill:url(#linearGradient11528);stroke:#cccccc;stroke-width:0.0732731;stroke-linecap:round"
               inkscape:connector-curvature="0" />
            <path
               id="path8401"
               style="fill:url(#linearGradient1479);filter:url(#filter3846)"
               d="m 31.862,106.93 -7.143,14.38 c 0,6.0923 4.8764,11 10.969,11 h 18 183.54 20 c 6.0923,0 11,-4.9077 11,-11 l -0.3,-90.577 c -1.74,-6.119 -235.21,68.869 -236.07,76.197 z"
               sodipodi:nodetypes="ccsccsccc"
               inkscape:connector-curvature="0"
               transform="matrix(0.15395815,0,0,0.06119523,41.92218,130.21198)" />
            <path
               id="path8403"
               d="M 44.283243,131.81742 H 85.14086 c 0.556914,0 1.005256,0.30131 1.005256,0.67559 v 4.15531 c 0,0.37428 -0.448342,0.67559 -1.005256,0.67559 H 44.283243 c -0.556914,0 -1.005256,-0.30131 -1.005256,-0.67559 v -4.15531 c 0,-0.37428 0.448342,-0.67559 1.005256,-0.67559 z"
               sodipodi:nodetypes="sssssssss"
               style="fill:url(#linearGradient11532);stroke-width:0.20043"
               inkscape:connector-curvature="0" />
          </g>
          <g
             id="g2246">
            <rect
               style="fill:none;stroke-width:0.313745"
               id="rect2204"
               width="4.4979167"
               height="1.5875"
               x="43.807156"
               y="132.34659" />
            <text
               xml:space="preserve"
               style="font-size:1.41111px;line-height:1.25;font-family:sans-serif;-inkscape-font-specification:sans-serif;stroke-width:0.264583"
               x="43.714828"
               y="133.39114"
               id="text2219"><tspan
                 sodipodi:role="line"
                 id="tspan2217"
                 x="43.714828"
                 y="133.39114"
                 style="font-size:1.41111px;stroke-width:0.264583">Space</tspan></text>
          </g>
        </g>
      </g>
    </g>
  </g>
</svg>
